<svg xmlns="http://www.w3.org/2000/svg" viewBox="0 0 31.01 30"><defs><style>.cls-1{fill:#ed5597;}</style></defs><title>ic-map</title><g id="圖層_2" data-name="圖層 2"><g id="圖層_2-2" data-name="圖層 2"><path class="cls-1" d="M15.51,5.43a3.94,3.94,0,1,1-3.94,3.93,4,4,0,0,1,3.94-3.93ZM6.94,13.18h0a9.38,9.38,0,1,1,17.14,0h3.27a.74.74,0,0,1,.73.65L31,29.14a.73.73,0,0,1-.58.85H.75A.74.74,0,0,1,0,29.26a1,1,0,0,1,0-.21L2.94,13.77a.76.76,0,0,1,.73-.59Zm.82,1.48H4.28L1.63,28.52H29.4L26.74,14.66H23.25l-.15.23a9.6,9.6,0,0,1-4.33,3.27l-2.28,3a1.24,1.24,0,0,1-1.72.25,1,1,0,0,1-.23-.25l-2.27-3a9.42,9.42,0,0,1-4.34-3.27l-.17-.23ZM20.41,4.48h0a6.92,6.92,0,1,0-7,11.48,1.19,1.19,0,0,1,.62.42l1.52,2,1.51-2h0a1.09,1.09,0,0,1,.58-.42A6.93,6.93,0,0,0,20.41,4.48ZM15.51,6.9h0A2.47,2.47,0,1,0,18,9.36,2.47,2.47,0,0,0,15.51,6.9Z"/></g></g></svg>