<svg xmlns="http://www.w3.org/2000/svg" viewBox="0 0 142.38 22.88"><defs><style>.cls-1{fill:#f15a24;fill-rule:evenodd;}</style></defs><title>ic-start</title><g id="圖層_2" data-name="圖層 2"><g id="圖層_2-2" data-name="圖層 2"><path id="rate" class="cls-1" d="M100.77,0l4,7.19,8.06,1.55-5.61,6,1,8.15-7.44-3.49-7.43,3.49,1-8.15-5.61-6,8.06-1.55,4-7.19"/><path id="rate-2" data-name="rate" class="cls-1" d="M71.19,0l4,7.19,8.06,1.55-5.61,6,1,8.15-7.44-3.49-7.43,3.49,1-8.15-5.62-6,8.07-1.55,4-7.19"/><path id="rate-3" data-name="rate" class="cls-1" d="M41.61,0l4,7.19,8.07,1.55-5.62,6,1,8.15-7.43-3.49-7.43,3.49,1-8.15-5.62-6,8.07-1.55,4-7.19"/><path id="rate-4" data-name="rate" class="cls-1" d="M12,0l4,7.19,8.07,1.55-5.62,6,1,8.15L12,19.39,4.59,22.88l1-8.15L0,8.74,8.06,7.19,12,0"/><path id="half_rate" data-name="half rate" class="cls-1" d="M136.77,14.73l1,8.15-7.43-3.49-7.44,3.49,1-8.15-5.61-6,8.06-1.55,4-7.19,4,7.19,8.06,1.55Zm-4.06-5.81L131,4.66v11.5l3.72,2.06-.6-4.83,3.33-3.55Z"/></g></g></svg>