<svg xmlns="http://www.w3.org/2000/svg" viewBox="0 0 110 20"><defs><style>.cls-1{fill:#f15a24;fill-rule:evenodd;}.cls-2{fill:none;}</style></defs><title>rating</title><g id="圖層_2" data-name="圖層 2"><g id="圖層_2-2" data-name="圖層 2"><path id="rate" class="cls-1" d="M11,0l3.46,6.29,7,1.35-4.9,5.24L17.49,20,11,17,4.51,20l.89-7.12L.5,7.64l7-1.35L11,0"/><path id="rate-2" data-name="rate" class="cls-1" d="M33,0l3.46,6.29,7,1.35-4.9,5.24L39.49,20,33,17,26.51,20l.89-7.12L22.5,7.64l7-1.35L33,0"/><path id="rate-3" data-name="rate" class="cls-1" d="M55,0l3.46,6.29,7,1.35-4.9,5.24L61.49,20,55,17,48.51,20l.89-7.12L44.5,7.64l7-1.35L55,0"/><path id="rate-4" data-name="rate" class="cls-1" d="M77,0l3.46,6.29,7,1.35-4.9,5.24L83.49,20,77,17,70.51,20l.89-7.12L66.5,7.64l7-1.35L77,0"/><path id="rate-5" data-name="rate" class="cls-1" d="M99,0l3.46,6.29,7,1.35-4.9,5.24.89,7.12L99,17,92.51,20l.89-7.12L88.5,7.64l7-1.35L99,0"/><rect class="cls-2" width="110" height="20"/></g></g></svg>