<svg xmlns="http://www.w3.org/2000/svg" viewBox="0 0 74 95"><defs><style>.cls-1{font-size:24px;fill:#fff;font-family:MicrosoftJhengHeiRegular, Microsoft JhengHei;}.cls-2{fill:#ed5597;}.cls-3{fill:none;}</style></defs><title>toolbar_1</title><g id="圖層_2" data-name="圖層 2"><g id="圖層_3" data-name="圖層 3"><text class="cls-1" transform="translate(13 88.28)">打卡</text><path class="cls-2" d="M37,1a25,25,0,0,1,9.53,48.19l-8,8.11a2.14,2.14,0,0,1-3.1,0l0,0h0l-8-8.1A25,25,0,0,1,37,1Zm0,12.4h0A12.47,12.47,0,0,1,45.88,17a12.6,12.6,0,0,1,0,17.8A12.58,12.58,0,1,1,37,13.4Zm7,5.51h0a10,10,0,0,0-14,0,9.93,9.93,0,1,0,14.05,0Zm7.58-7.5h0a20.69,20.69,0,0,0-29.2,0,20.63,20.63,0,0,0,7,33.84,2.38,2.38,0,0,1,.83.52L37,52.65l6.75-6.88v.06a1.8,1.8,0,0,1,.74-.55,20.57,20.57,0,0,0,9.56-7.59,20.83,20.83,0,0,0-2.44-26.28Z"/><rect class="cls-3" width="74" height="95"/></g></g></svg>