<svg xmlns="http://www.w3.org/2000/svg" viewBox="0 0 74 95"><defs><style>.cls-1{font-size:24px;fill:#fff;font-family:MicrosoftJhengHeiRegular, Microsoft JhengHei;}.cls-2{fill:#ed5597;}.cls-3{fill:none;}</style></defs><title>toolbar_3</title><g id="圖層_2" data-name="圖層 2"><g id="圖層_3" data-name="圖層 3"><text class="cls-1" transform="translate(1 88.28)">传照片</text><path class="cls-2" d="M60.06,8.14H13.91A1.91,1.91,0,0,0,12,10.05V48.9a1.94,1.94,0,0,0,1.91,1.94H60.06A2,2,0,0,0,62,48.9V10.05a1.93,1.93,0,0,0-1.94-1.91ZM58.15,47H15.85V42.75l9.91-9.92,6.87,6.88v0h0l4.1,4.08a1.15,1.15,0,1,0,1.63-1.62l-3.3-3.29,9.33-9.32L58.15,43.31V47Zm0-6.92h0L45.24,27.12a1.15,1.15,0,0,0-1.63,0L33.45,37.28l-6.87-6.89a1.12,1.12,0,0,0-1.62,0l-9.11,9.1V12h42.3V40.06ZM26.49,27.45h0a6.7,6.7,0,1,0-6.68-6.69,6.73,6.73,0,0,0,6.68,6.69Zm0-11.11h0a4.4,4.4,0,1,1-4.39,4.42,4.4,4.4,0,0,1,4.39-4.42Z"/><rect class="cls-3" width="74" height="95"/></g></g></svg>