<svg xmlns="http://www.w3.org/2000/svg" viewBox="0 0 74 95"><defs><style>.cls-1{font-size:24px;fill:#fff;font-family:MicrosoftJhengHeiRegular, Microsoft JhengHei;}.cls-2{fill:#ed5597;}.cls-3{fill:none;}</style></defs><title>toolbar_2</title><g id="圖層_2" data-name="圖層 2"><g id="圖層_3" data-name="圖層 3"><text class="cls-1" transform="translate(1 88.28)">拍视频</text><path class="cls-2" d="M28.18,31.26A1.16,1.16,0,0,1,27,30.11a1.18,1.18,0,0,1,1.16-1.18H42.52a1.17,1.17,0,0,1,1.16,1.18,1.15,1.15,0,0,1-1.16,1.15Zm24.65-1h0l6.09-4.48a2,2,0,0,1,2.72.41A2,2,0,0,1,62,27.29V40.51a1.89,1.89,0,0,1-1.92,1.89A1.94,1.94,0,0,1,58.84,42l-6-4.4V39.2a6.5,6.5,0,0,1-6.52,6.49H44.64l5.65,5.66a2,2,0,0,1,0,2.73,1.93,1.93,0,0,1-2.72,0l-8.39-8.39H37.27v7a1.93,1.93,0,0,1-1.91,2,2,2,0,0,1-2-2v-7H31.52l-8.39,8.39a1.93,1.93,0,1,1-2.74-2.73l5.66-5.66H24.36a6.63,6.63,0,0,1-4.6-1.89l-.07-.12a6.46,6.46,0,0,1-1.82-4.48V27.64a12.23,12.23,0,0,1-4-4A12.54,12.54,0,0,1,12,17a12.63,12.63,0,0,1,23.36-6.7A12.62,12.62,0,0,1,58.71,17a12.46,12.46,0,0,1-1.89,6.62,12.32,12.32,0,0,1-4,4v2.59Zm5.31.88h0l-3.82,2.77,3.82,2.81V31.11ZM37.27,17h0a1.92,1.92,0,1,1-3.83,0,8.8,8.8,0,0,0-17.59,0,9,9,0,0,0,1.28,4.6,9.07,9.07,0,0,0,3.52,3.24,1.87,1.87,0,0,1,1.08,1.84V39.2a2.53,2.53,0,0,0,.7,1.79l.09.07a2.54,2.54,0,0,0,1.84.79h22A2.68,2.68,0,0,0,49,39.2V27s0-.28,0-.28A1.9,1.9,0,0,1,50,24.84a8.69,8.69,0,0,0,3.56-3.26,8.6,8.6,0,0,0,1.3-4.6,8.79,8.79,0,1,0-17.58,0Zm7.37-1.44h0a2,2,0,0,0,0,2.86,2,2,0,1,0,0-2.86ZM43,13.9h0A4.35,4.35,0,1,1,49.16,20,4.35,4.35,0,0,1,43,13.9ZM23.2,15.54h0a2,2,0,0,0,2.86,2.86,2,2,0,0,0,0-2.86,2,2,0,0,0-2.86,0ZM21.58,13.9h0a4.31,4.31,0,0,1,6.12,0,4.33,4.33,0,1,1-6.12,0Zm6.6,24.87h0A1.15,1.15,0,0,1,27,37.64a1.17,1.17,0,0,1,1.16-1.17H42.52a1.16,1.16,0,0,1,1.16,1.17,1.14,1.14,0,0,1-1.16,1.13Z"/><rect class="cls-3" width="74" height="95"/></g></g></svg>