<svg xmlns="http://www.w3.org/2000/svg" viewBox="0 0 74 95"><defs><style>.cls-1{font-size:24px;fill:#fff;font-family:MicrosoftJhengHeiRegular, Microsoft JhengHei;}.cls-2{fill:#ed5597;}.cls-3{fill:none;}</style></defs><title>toolbar_4</title><g id="圖層_2" data-name="圖層 2"><g id="圖層_3" data-name="圖層 3"><text class="cls-1" transform="translate(1 88.28)">写点评</text><path class="cls-2" d="M50.39,3.61a12.55,12.55,0,0,0-8,2.88l-2.7-2.7a1.18,1.18,0,0,0-1.7,0L23.34,18.37a1.22,1.22,0,0,0,1.71,1.73L38.77,6.39l1.8,1.78L16.11,32.63a12.7,12.7,0,0,0-2.84,13.54l-.72.69v0a4.76,4.76,0,0,0-1.14,5.45,5.1,5.1,0,0,0,8.3,1.73v0l.72-.69a13.25,13.25,0,0,0,6.44.71A12.59,12.59,0,0,0,34,50.52L59.28,25.18A12.62,12.62,0,0,0,50.39,3.61ZM26.28,50h0A8.57,8.57,0,0,1,21,49.1a2.14,2.14,0,0,0-2.49.44l-1.62,1.65h0c-.91.94-2.34-.51-1.42-1.41l1.74-1.73a2,2,0,0,0,.29-2.49,8.5,8.5,0,0,1-.88-5.23,8.67,8.67,0,0,1,1.63-3.88l12,12A8.62,8.62,0,0,1,26.28,50ZM32,46.76h0L19.84,34.67,35.46,19.05,47.57,31.14,32,46.76ZM49.29,29.4h0L37.2,17.31l2.93-2.93L52.24,26.47l-3,2.93Zm7.14-7.1h0L54,24.76,41.87,12.64l2.44-2.46.09-.09a8.57,8.57,0,0,1,12,12.21Z"/><rect class="cls-3" width="74" height="95"/></g></g></svg>