<svg xmlns="http://www.w3.org/2000/svg" viewBox="0 0 37.52 40"><defs><style>.cls-1{fill:#1a1a1a;}</style></defs><title>ttb_3</title><g id="圖層_2" data-name="圖層 2"><g id="圖層_2-2" data-name="圖層 2"><path class="cls-1" d="M30.55,26.07a7,7,0,0,1,4.92,2h0A7,7,0,0,1,30.55,40a7,7,0,0,1-6.95-7A7.06,7.06,0,0,1,24,30.77l-7.4-4.44c-.12.13-.24.27-.36.38l-.1.07A9.34,9.34,0,0,1,9.5,29.5a9.5,9.5,0,1,1,6.71-16.22v0l.36.38L24,9.22a7.05,7.05,0,1,1,1.66,2.64l-.05,0-7.35,4.41A9.36,9.36,0,0,1,19,20a9.56,9.56,0,0,1-.76,3.78l7.35,4.39.05,0h0a6.89,6.89,0,0,1,4.89-2Zm2.76,4.22h0a3.86,3.86,0,0,0-5.5,0h0a3.88,3.88,0,1,0,5.5,0ZM14,15.45h0A6.42,6.42,0,1,0,14,24.6l.07-.08a6.43,6.43,0,0,0,0-9.07ZM30.55,3.07h0A3.87,3.87,0,0,0,27.24,9l0,.07h0l.47.6.08,0a3.81,3.81,0,0,0,2.74,1.14,3.89,3.89,0,1,0,0-7.77Z"/></g></g></svg>