<svg xmlns="http://www.w3.org/2000/svg" viewBox="0 0 41.9 40"><defs><style>.cls-1{fill:#1a1a1a;}</style></defs><title>ttb_2</title><g id="圖層_2" data-name="圖層 2"><g id="圖層_2-2" data-name="圖層 2"><path class="cls-1" d="M22.48,1.09l4.18,13,13.63,0a1.61,1.61,0,0,1,.94,2.91l-11,8,4.24,12.94A1.63,1.63,0,0,1,32,39.69l-11-8-11,8A1.62,1.62,0,0,1,7.5,37.8l4.21-12.87-11-8A1.62,1.62,0,0,1,1.6,14l13.63,0,4.18-13a1.62,1.62,0,0,1,3.06,0ZM24,16.17h0L21,6.81l-3,9.28a1.65,1.65,0,0,1-1.58,1.2l-9.82,0,8,5.76a1.64,1.64,0,0,1,.59,1.8l-3.06,9.33,7.88-5.74a1.59,1.59,0,0,1,2,0l7.94,5.78-3.06-9.33a1.58,1.58,0,0,1,.59-1.8l8-5.76-9.69,0A1.63,1.63,0,0,1,24,16.17Z"/></g></g></svg>